<?xml version="1.0" standalone="no"?><svg xmlns="http://www.w3.org/2000/svg" viewBox="0 0 1440 320"><path fill="#0099ff" fill-opacity="1" d="M0,64L15,80C30,96,60,128,90,128C120,128,150,96,180,80C210,64,240,64,270,85.3C300,107,330,149,360,181.3C390,213,420,235,450,256C480,277,510,299,540,309.3C570,320,600,320,630,309.3C660,299,690,277,720,229.3C750,181,780,107,810,90.7C840,75,870,117,900,122.7C930,128,960,96,990,122.7C1020,149,1050,235,1080,256C1110,277,1140,235,1170,192C1200,149,1230,107,1260,96C1290,85,1320,107,1350,144C1380,181,1410,235,1425,261.3L1440,288L1440,320L1425,320C1410,320,1380,320,1350,320C1320,320,1290,320,1260,320C1230,320,1200,320,1170,320C1140,320,1110,320,1080,320C1050,320,1020,320,990,320C960,320,930,320,900,320C870,320,840,320,810,320C780,320,750,320,720,320C690,320,660,320,630,320C600,320,570,320,540,320C510,320,480,320,450,320C420,320,390,320,360,320C330,320,300,320,270,320C240,320,210,320,180,320C150,320,120,320,90,320C60,320,30,320,15,320L0,320Z"></path></svg>